<svg width="18" height="16" viewBox="0 0 18 16" fill="none" xmlns="http://www.w3.org/2000/svg">
<path d="M3.29404 15.434H13.14C14.868 15.434 16.29 14.012 16.29 12.284V11.996C16.974 11.762 17.478 11.096 17.478 10.322V7.964C17.478 7.19 16.992 6.54201 16.29 6.29V6.00201C16.29 4.27401 14.868 2.852 13.14 2.852H13.014L12.888 2.06C12.816 1.556 12.51 1.124 12.096 0.836005C11.682 0.566005 11.16 0.476005 10.656 0.620005L2.73604 2.888C2.68204 2.906 2.61004 2.924 2.57404 2.96C1.40404 3.266 0.540039 4.346 0.540039 5.60601V12.68C0.540039 14.21 1.78204 15.434 3.29404 15.434ZM15.696 7.76601C15.822 7.76601 15.894 7.83801 15.894 7.964V10.322C15.894 10.448 15.822 10.52 15.696 10.52H13.32C12.546 10.52 11.934 9.908 11.934 9.134C11.934 8.36 12.546 7.748 13.32 7.748H15.696V7.76601ZM11.088 2.132C11.16 2.114 11.214 2.132 11.25 2.15C11.286 2.168 11.322 2.204 11.322 2.294L11.394 2.852H8.60404L11.088 2.132ZM2.10604 5.60601C2.10604 4.958 2.64604 4.418 3.29404 4.418H13.14C14.004 4.418 14.706 5.12 14.706 5.984V6.20001H13.32C11.682 6.20001 10.368 7.51401 10.368 9.15201C10.368 10.79 11.7 12.104 13.32 12.104H14.706V12.302C14.706 13.166 14.004 13.868 13.14 13.868H3.29404C2.64604 13.868 2.10604 13.328 2.10604 12.68V5.60601Z" fill="#9CA6C1"/>
</svg>
