<svg width="16" height="16" viewBox="0 0 16 16" fill="none" xmlns="http://www.w3.org/2000/svg">
<path d="M10.3339 5.08343C10.3334 5.22875 10.3237 5.37347 10.3047 5.51753C10.3158 5.43727 10.3269 5.35702 10.338 5.27675C10.3001 5.54903 10.2284 5.8145 10.1239 6.06874C10.1547 5.995 10.1855 5.92127 10.2163 5.84752C10.1098 6.10166 9.97206 6.34047 9.80562 6.56008C9.85407 6.49652 9.90251 6.43296 9.95096 6.36938C9.7801 6.59186 9.5822 6.79102 9.36081 6.9633C9.42478 6.91355 9.48873 6.8638 9.55267 6.81405C9.32868 6.98607 9.08431 7.1281 8.82384 7.23725C8.9012 7.20497 8.97854 7.17269 9.05592 7.14041C8.79503 7.24775 8.52229 7.32041 8.2426 7.35739C8.32573 7.34668 8.40889 7.33596 8.49201 7.32524C8.21048 7.36054 7.92639 7.35961 7.6451 7.32241C7.72537 7.33352 7.80562 7.34463 7.88589 7.35574C7.6136 7.31786 7.34814 7.24618 7.0939 7.14157C7.16764 7.17239 7.24137 7.20322 7.31512 7.23405C7.06098 7.12753 6.82217 6.98975 6.60256 6.82333C6.66612 6.87177 6.7297 6.92022 6.79326 6.96866C6.57078 6.7978 6.37162 6.59989 6.19935 6.3785C6.2491 6.44246 6.29885 6.50641 6.3486 6.57036C6.1766 6.34638 6.03456 6.102 5.9254 5.84153C5.95768 5.91889 5.98996 5.99624 6.02226 6.0736C5.91492 5.81271 5.84226 5.53999 5.80528 5.2603C5.816 5.34344 5.82671 5.42657 5.83743 5.50971C5.80214 5.22819 5.80306 4.94408 5.84026 4.6628C5.82915 4.74307 5.81804 4.82332 5.80693 4.90358C5.84479 4.63128 5.9165 4.36583 6.0211 4.1116C5.99028 4.18533 5.95945 4.25907 5.92862 4.33282C6.03514 4.07868 6.17292 3.83986 6.33934 3.62025C6.2909 3.68382 6.24245 3.74739 6.19401 3.81096C6.36487 3.58847 6.56276 3.38932 6.78415 3.21703C6.7202 3.26678 6.65624 3.31653 6.59229 3.36628C6.81628 3.19427 7.06064 3.05224 7.3211 2.94308C7.24375 2.97536 7.1664 3.00764 7.08904 3.03993C7.34993 2.93258 7.62265 2.85992 7.90232 2.82294C7.8192 2.83366 7.73606 2.84438 7.65293 2.8551C7.93445 2.8198 8.21856 2.82072 8.49982 2.85792C8.41956 2.84682 8.33931 2.83571 8.25906 2.8246C8.53134 2.86246 8.79679 2.93416 9.05104 3.03877C8.97731 3.00794 8.90357 2.97711 8.82984 2.94628C9.08398 3.0528 9.32279 3.19058 9.5424 3.35702C9.47884 3.30857 9.41526 3.26013 9.3517 3.21169C9.57418 3.38255 9.77334 3.58044 9.94562 3.80185C9.89585 3.73789 9.84612 3.67394 9.79635 3.60999C9.96837 3.83397 10.1104 4.07833 10.2196 4.33882C10.1873 4.26146 10.155 4.18411 10.1227 4.10674C10.2301 4.36764 10.3027 4.64036 10.3397 4.92003C10.329 4.83691 10.3183 4.75377 10.3075 4.67064C10.3247 4.80769 10.3334 4.94528 10.3339 5.08343C10.3356 5.59413 10.7503 6.02449 11.2648 6.02789C11.7717 6.03125 12.211 5.60771 12.2093 5.09694C12.2079 4.66713 12.1447 4.22469 12.0074 3.81652C11.8734 3.41841 11.6908 3.03038 11.4386 2.69316C11.2917 2.49667 11.1402 2.30464 10.9649 2.13271C10.7912 1.96221 10.5945 1.81399 10.3974 1.67233C10.0598 1.42982 9.6662 1.25471 9.27134 1.13046C9.10264 1.07738 8.92918 1.04019 8.7541 1.01583C8.49854 0.980284 8.24931 0.948394 7.99115 0.954487C7.56318 0.964597 7.12306 1.03561 6.72004 1.18317C6.48668 1.26863 6.25435 1.36738 6.03673 1.48835C5.82064 1.60846 5.62965 1.75911 5.43482 1.91072C5.10689 2.16591 4.84054 2.49057 4.60779 2.83274C4.37425 3.17607 4.20262 3.57388 4.08887 3.97188C3.971 4.38433 3.91862 4.83028 3.94035 5.25894C3.96206 5.68719 4.03707 6.12066 4.19545 6.52036C4.28754 6.75278 4.38473 6.98182 4.51187 7.19727C4.63642 7.40832 4.78943 7.60268 4.9444 7.79168C5.20621 8.111 5.5379 8.37746 5.88375 8.59997C6.23315 8.82477 6.63393 8.99222 7.03564 9.09558C7.45228 9.20279 7.89842 9.24983 8.32809 9.21641C8.5812 9.19672 8.83679 9.16197 9.0839 9.10188C9.32993 9.04207 9.55929 8.94432 9.79243 8.8466C10.1559 8.69425 10.4705 8.46708 10.774 8.21822C11.0735 7.97261 11.3201 7.66663 11.5372 7.34757C11.7555 7.02657 11.9161 6.65797 12.0322 6.289C12.1521 5.90796 12.208 5.49566 12.2093 5.09691C12.211 4.58616 11.7903 4.15583 11.2784 4.15244C10.7689 4.14908 10.3356 4.57267 10.3339 5.08343Z" fill="#9CA6C1"/>
<path d="M3.20355 14.1678C3.20405 13.8994 3.22225 13.6316 3.2585 13.3657C3.24739 13.4459 3.23628 13.5262 3.22517 13.6064C3.29444 13.1119 3.42645 12.6284 3.6185 12.1674C3.58767 12.2412 3.55684 12.3149 3.52602 12.3886C3.71805 11.9324 3.96709 11.5024 4.26686 11.1085C4.21842 11.172 4.16997 11.2356 4.12153 11.2992C4.42483 10.9035 4.77684 10.5478 5.1693 10.2403C5.10534 10.2901 5.04139 10.3398 4.97744 10.3896C5.38441 10.0731 5.83103 9.81115 6.30623 9.61116C6.22887 9.64344 6.15153 9.67573 6.07417 9.70801C6.54842 9.51043 7.04647 9.37644 7.55575 9.30896C7.47261 9.31968 7.38948 9.3304 7.30636 9.34112C7.82478 9.27437 8.35012 9.27626 8.86806 9.34683C8.7878 9.33573 8.70755 9.32462 8.62728 9.31351C9.12183 9.38279 9.60531 9.51479 10.0663 9.70683C9.99255 9.67601 9.91883 9.64519 9.84509 9.61435C10.3014 9.80638 10.7313 10.0554 11.1253 10.3552C11.0617 10.3068 10.9981 10.2583 10.9346 10.2099C11.3302 10.5132 11.686 10.8652 11.9934 11.2576C11.9437 11.1937 11.8939 11.1297 11.8442 11.0658C12.1607 11.4728 12.4226 11.9194 12.6226 12.3946C12.5903 12.3172 12.558 12.2399 12.5257 12.1625C12.7233 12.6368 12.8573 13.1348 12.9248 13.6441C12.914 13.561 12.9033 13.4778 12.8926 13.3947C12.925 13.6467 12.9414 13.9002 12.9418 14.1542C12.9428 14.665 13.3588 15.0953 13.8728 15.0987C14.3802 15.1021 14.8182 14.6785 14.8172 14.1678C14.8158 13.3839 14.6845 12.5851 14.4063 11.851C14.2568 11.4567 14.0836 11.0708 13.8675 10.7083C13.6549 10.3518 13.4007 10.0174 13.1305 9.70301C12.9082 9.44444 12.662 9.20672 12.3981 8.9909C12.0769 8.72813 11.7389 8.48421 11.377 8.28046C10.7093 7.90457 9.96504 7.63468 9.20719 7.51708C8.77409 7.44988 8.34203 7.40683 7.90353 7.41907C7.46956 7.43116 7.03226 7.48735 6.60783 7.57746C6.26586 7.65005 5.93117 7.75566 5.60808 7.8889C5.2165 8.05038 4.83811 8.22524 4.48006 8.45268C3.12488 9.31352 2.1165 10.6331 1.63038 12.1617C1.42733 12.8001 1.32938 13.4851 1.32813 14.1543C1.32717 14.665 1.74655 15.0954 2.25908 15.0987C2.76797 15.1021 3.20259 14.6785 3.20355 14.1678Z" fill="#9CA6C1"/>
</svg>
