<svg width="20" height="20" viewBox="0 0 20 20" fill="none" xmlns="http://www.w3.org/2000/svg">
<path d="M20 10C20 4.47715 15.5229 0 10 0C4.47715 0 0 4.47715 0 10C0 14.9912 3.65684 19.1283 8.4375 19.8785V12.8906H5.89844V10H8.4375V7.79688C8.4375 5.29063 9.93047 3.90625 12.2146 3.90625C13.3084 3.90625 14.4531 4.10156 14.4531 4.10156V6.5625H13.1922C11.95 6.5625 11.5625 7.3334 11.5625 8.125V10H14.3359L13.8926 12.8906H11.5625V19.8785C16.3432 19.1283 20 14.9912 20 10Z" fill="#1877F2"/>
<path d="M13.8276 12.7344L14.271 9.84375H11.4976V7.96875C11.4976 7.17793 11.8851 6.40625 13.1272 6.40625H14.3882V3.94531C14.3882 3.94531 13.2438 3.75 12.1497 3.75C9.86553 3.75 8.37256 5.13438 8.37256 7.64063V9.84375H5.8335V12.7344H8.37256V19.7223C9.40793 19.8842 10.4622 19.8842 11.4976 19.7223V12.7344H13.8276Z" fill="white"/>
</svg>
