<svg width="20" height="20" viewBox="0 0 20 20" fill="none" xmlns="http://www.w3.org/2000/svg">
<path d="M19 4.7971C18.3235 5.09753 17.6081 5.29614 16.876 5.38674C17.6484 4.91441 18.2272 4.17133 18.505 3.29538C17.7792 3.73766 16.9847 4.04927 16.156 4.21668C15.602 3.60177 14.8645 3.19246 14.0588 3.05293C13.2532 2.9134 12.425 3.05155 11.7044 3.44572C10.9837 3.83989 10.4112 4.46777 10.0767 5.23088C9.74215 5.99401 9.66457 6.84921 9.856 7.66237C8.38846 7.58638 6.953 7.19522 5.64278 6.51429C4.33258 5.83336 3.17696 4.87789 2.251 3.70996C1.92623 4.29053 1.75557 4.94803 1.756 5.61707C1.75485 6.23838 1.9038 6.85034 2.18958 7.39847C2.47536 7.9466 2.88912 8.41389 3.394 8.75872C2.80718 8.74241 2.2329 8.58118 1.72 8.28886V8.33492C1.7244 9.20546 2.02239 10.0477 2.56358 10.7193C3.10478 11.3907 3.85593 11.8503 4.69 12.0201C4.36893 12.1202 4.03558 12.1729 3.7 12.1768C3.4677 12.174 3.23598 12.1524 3.007 12.1123C3.24452 12.8611 3.70416 13.5155 4.32196 13.9846C4.93978 14.4535 5.68502 14.7136 6.454 14.7288C5.15548 15.7747 3.55229 16.3456 1.9 16.3503C1.59917 16.3513 1.29857 16.3329 1 16.295C2.68699 17.4101 4.65293 18.0019 6.661 17.9994C8.04672 18.0142 9.42139 17.7461 10.7048 17.2109C11.9882 16.6756 13.1545 15.884 14.1357 14.8822C15.1169 13.8804 15.8932 12.6885 16.4193 11.3761C16.9455 10.0637 17.2108 8.65712 17.2 7.23857C17.2 7.08194 17.2 6.91611 17.2 6.75027C17.9062 6.21113 18.5154 5.5502 19 4.7971Z" fill="#1DA1F2"/>
</svg>
