<svg width="192" height="199" viewBox="0 0 192 199" fill="none" xmlns="http://www.w3.org/2000/svg">
    <path d="M39.8157 24.6661C39.8157 24.6661 36.236 7.4933 51.4677 1.36201C66.6994 -4.76929 72.1106 11.7878 72.1106 11.7878L39.8157 24.6661Z" fill="#253050"/>
    <path d="M123.076 10.7494C123.076 10.7494 132.792 -3.85614 147.847 2.68217C162.901 9.22047 154.922 24.7026 154.922 24.7026L123.076 10.7494Z" fill="#253050"/>
    <path d="M189.852 98.2521C189.852 150.126 147.8 192.178 95.9262 192.178C44.0529 192.178 2 150.126 2 98.2521C2 85.1181 4.69255 72.6207 9.56106 61.2661C23.9213 27.7814 57.1869 4.32593 95.9262 4.32593C135.965 4.32593 170.154 29.3781 183.669 64.6683C187.666 75.0941 189.852 86.4174 189.852 98.2521Z" fill="white" stroke="#253050" stroke-width="3.5256" stroke-miterlimit="10"/>
    <path d="M189.852 98.2522C189.852 150.126 147.8 192.178 95.9262 192.178C44.0529 192.178 2 150.126 2 98.2522C2 85.1181 4.69255 72.6207 9.56106 61.2661C16.569 67.173 30.0109 73.6957 55.7571 77.7084C97.7004 84.2415 150.257 81.5907 183.716 64.0108C187.713 74.4419 189.852 86.4175 189.852 98.2522Z" fill="#253050"/>
    <path d="M97.9978 186.459C141.053 186.459 175.957 150.675 175.957 106.533C175.957 62.3914 141.053 26.6073 97.9978 26.6073C54.9424 26.6073 20.0391 62.3914 20.0391 106.533C20.0391 150.675 54.9424 186.459 97.9978 186.459Z" fill="white" stroke="#253050" stroke-width="3.5256" stroke-miterlimit="10"/>
    <path d="M172.836 79.5712C172.836 79.5712 142.581 97.8659 152.804 115.649C163.026 133.433 188.678 110.337 188.678 110.337L172.836 79.5712Z" fill="#253050"/>
    <path d="M22.5854 79.8322C22.5854 79.8322 52.8401 98.1269 42.6178 115.91C32.3955 133.694 6.74316 110.598 6.74316 110.598L22.5854 79.8322Z" fill="#253050"/>
    <path d="M65.0348 189.487C72.3323 184.259 72.9756 172.661 66.4718 163.583C59.9679 154.505 48.7798 151.384 41.4823 156.613C34.1848 161.841 33.5415 173.438 40.0453 182.516C46.5492 191.594 57.7373 194.715 65.0348 189.487Z" fill="#253050"/>
    <path d="M151.977 183.37C159.062 174.737 159.179 163.123 152.24 157.428C145.301 151.733 133.932 154.114 126.848 162.746C119.763 171.378 119.645 182.993 126.585 188.688C133.524 194.383 144.893 192.002 151.977 183.37Z" fill="#253050"/>
    <path d="M78.0021 13.3793C80.7051 17.5068 77.7934 24.2017 71.5003 28.324C65.2072 32.4463 58.7316 31.7628 55.2041 28.3136C51.5253 24.7183 55.4128 17.4912 61.7059 13.3689C67.9989 9.24656 75.2991 9.24656 78.0021 13.3793Z" fill="#253050"/>
    <path d="M104.155 18.9941C104.155 19.615 101.343 21.958 97.8674 21.958C94.3922 21.958 91.5796 19.615 91.5796 18.9941C91.5796 18.3731 94.3922 17.8722 97.8674 17.8722C101.343 17.8722 104.155 18.3731 104.155 18.9941Z" fill="#253050"/>
    <path d="M69.1676 25.6368C72.8362 25.6368 75.8102 22.6628 75.8102 18.9941C75.8102 15.3255 72.8362 12.3514 69.1676 12.3514C65.4989 12.3514 62.5249 15.3255 62.5249 18.9941C62.5249 22.6628 65.4989 25.6368 69.1676 25.6368Z" fill="#F7F6F6"/>
    <path d="M69.9342 25.6367C73.1792 25.6367 75.8098 23.0061 75.8098 19.7611C75.8098 16.5161 73.1792 13.8855 69.9342 13.8855C66.6892 13.8855 64.0586 16.5161 64.0586 19.7611C64.0586 23.0061 66.6892 25.6367 69.9342 25.6367Z" fill="#253050"/>
    <path d="M67.2261 19.3019C68.5229 19.3019 69.5742 18.2506 69.5742 16.9537C69.5742 15.6569 68.5229 14.6056 67.2261 14.6056C65.9292 14.6056 64.8779 15.6569 64.8779 16.9537C64.8779 18.2506 65.9292 19.3019 67.2261 19.3019Z" fill="#F7F6F6"/>
    <path d="M141.892 27.9692C139.753 32.4202 132.521 33.3804 125.737 30.1242C118.954 26.8629 116.198 20.9717 117.326 16.1658C118.505 11.1564 126.697 10.7546 133.481 14.0107C140.264 17.2668 144.027 23.5233 141.892 27.9692Z" fill="#253050"/>
    <path d="M126.608 26.6125C130.277 26.6125 133.251 23.6385 133.251 19.9698C133.251 16.3012 130.277 13.3271 126.608 13.3271C122.94 13.3271 119.966 16.3012 119.966 19.9698C119.966 23.6385 122.94 26.6125 126.608 26.6125Z" fill="#F7F6F6"/>
    <path d="M126.347 26.8943C129.592 26.8943 132.223 24.2637 132.223 21.0187C132.223 17.7737 129.592 15.1431 126.347 15.1431C123.102 15.1431 120.472 17.7737 120.472 21.0187C120.472 24.2637 123.102 26.8943 126.347 26.8943Z" fill="#253050"/>
    <path d="M127.355 19.5994C128.651 19.5994 129.703 18.5481 129.703 17.2512C129.703 15.9544 128.651 14.9031 127.355 14.9031C126.058 14.9031 125.006 15.9544 125.006 17.2512C125.006 18.5481 126.058 19.5994 127.355 19.5994Z" fill="#F7F6F6"/>
</svg>
